<?xml version="1.0" encoding="UTF-8"?>
<svg version="1.1" xmlns="http://www.w3.org/2000/svg" width="512" height="512">
<path d="M0 0 C0.82278946 -0.00701431 1.64557892 -0.01402863 2.49330139 -0.02125549 C5.13621542 -0.03867925 7.77890564 -0.04510821 10.421875 -0.046875 C11.32304047 -0.04754974 12.22420593 -0.04822449 13.15267944 -0.04891968 C26.05010425 -0.03354182 38.56076875 0.24649556 51.171875 3.203125 C51.94080078 3.37473145 52.70972656 3.54633789 53.50195312 3.72314453 C90.556406 12.14392698 122.81830927 30.01991084 150.171875 56.203125 C150.66929199 56.67331055 151.16670898 57.14349609 151.67919922 57.62792969 C180.07334155 84.57180905 199.02726693 120.06599771 207.171875 158.203125 C207.34976562 159.02474121 207.52765625 159.84635742 207.7109375 160.69287109 C212.49173976 183.9755678 212.37723991 211.04757024 207.171875 234.203125 C206.98383301 235.07694824 206.79579102 235.95077148 206.60205078 236.85107422 C194.67099646 291.00116563 162.30650852 339.98109974 128.72265625 383.20703125 C127.25339575 385.09819527 125.79045551 386.99410112 124.328125 388.890625 C118.34583944 396.61338644 112.09607329 404.06876704 105.69238281 411.44433594 C104.16330555 413.21303738 102.64626719 414.99135677 101.1328125 416.7734375 C95.42181432 423.49301673 89.59797959 430.07758103 83.609375 436.55078125 C81.65443622 438.67803034 79.74305455 440.82584752 77.859375 443.015625 C72.77238997 448.87592842 67.40928438 454.48843642 62.09960938 460.14599609 C60.15613753 462.21991881 58.21809218 464.29879215 56.28125 466.37890625 C50.13602071 472.97016025 43.98211685 479.5178177 37.515625 485.796875 C35.56498919 487.79952777 33.74111771 489.83689115 31.91796875 491.953125 C28.05326741 496.40735705 23.92749224 500.55988015 19.734375 504.703125 C19.00283203 505.43015625 18.27128906 506.1571875 17.51757812 506.90625 C15.73797676 508.67421999 13.95606582 510.43978878 12.171875 512.203125 C8.63067442 510.69402488 6.35583135 508.63193186 3.65234375 505.9140625 C2.79447266 505.05425781 1.93660156 504.19445312 1.05273438 503.30859375 C0.16392578 502.40753906 -0.72488281 501.50648438 -1.640625 500.578125 C-2.51783203 499.70027344 -3.39503906 498.82242187 -4.29882812 497.91796875 C-8.76194812 493.42480531 -13.06326724 488.85964755 -17.19018555 484.05712891 C-19.92549139 480.96100243 -22.87723508 478.0918651 -25.828125 475.203125 C-30.17076847 470.91070529 -34.37488285 466.58777927 -38.32421875 461.92578125 C-39.91918498 460.09881993 -41.59830342 458.40253213 -43.328125 456.703125 C-46.27695283 453.79976368 -48.9894461 450.76057615 -51.6875 447.625 C-53.91294786 445.10715753 -56.19837901 442.65611724 -58.49829102 440.20654297 C-63.77890234 434.5818563 -68.82658232 428.87324137 -73.65234375 422.84765625 C-75.958442 420.04473252 -78.36964031 417.37309225 -80.828125 414.703125 C-85.72074433 409.3732608 -90.31849523 403.85914214 -94.828125 398.203125 C-96.03855469 396.68525391 -96.03855469 396.68525391 -97.2734375 395.13671875 C-99.60205027 392.20119912 -101.90781226 389.24840246 -104.20605469 386.2890625 C-105.34183715 384.82847771 -106.48077705 383.37034525 -107.62207031 381.9140625 C-123.20089614 362.00645148 -137.25803459 341.13791145 -149.828125 319.203125 C-150.3226416 318.34041992 -150.8171582 317.47771484 -151.32666016 316.58886719 C-164.85062387 292.80579393 -176.62702964 268.10473582 -183.140625 241.453125 C-183.38337158 240.45998291 -183.62611816 239.46684082 -183.8762207 238.44360352 C-187.06763731 224.68788675 -188.2124214 211.14484429 -188.140625 197.078125 C-188.13846985 196.31310669 -188.1363147 195.54808838 -188.13409424 194.7598877 C-188.0782806 182.36538872 -187.44695769 170.35498702 -184.828125 158.203125 C-184.54606201 156.86096924 -184.54606201 156.86096924 -184.25830078 155.49169922 C-173.153304 104.40164643 -140.46450268 59.41730711 -96.70825195 31.15332031 C-93.45310874 29.10344807 -90.15153602 27.13987435 -86.828125 25.203125 C-86.2285498 24.84911621 -85.62897461 24.49510742 -85.01123047 24.13037109 C-60.07408823 9.55920298 -28.96296311 0.1653014 0 0 Z " fill="#C7C5C6" transform="translate(244.828125,-0.203125)"/>
<path d="M0 0 C0.82278946 -0.00701431 1.64557892 -0.01402863 2.49330139 -0.02125549 C5.13621542 -0.03867925 7.77890564 -0.04510821 10.421875 -0.046875 C11.32304047 -0.04754974 12.22420593 -0.04822449 13.15267944 -0.04891968 C26.05010425 -0.03354182 38.56076875 0.24649556 51.171875 3.203125 C51.94080078 3.37473145 52.70972656 3.54633789 53.50195312 3.72314453 C90.556406 12.14392698 122.81830927 30.01991084 150.171875 56.203125 C150.66929199 56.67331055 151.16670898 57.14349609 151.67919922 57.62792969 C180.07334155 84.57180905 199.02726693 120.06599771 207.171875 158.203125 C207.34976562 159.02474121 207.52765625 159.84635742 207.7109375 160.69287109 C212.49173976 183.9755678 212.37723991 211.04757024 207.171875 234.203125 C206.98383301 235.07694824 206.79579102 235.95077148 206.60205078 236.85107422 C194.67099646 291.00116563 162.30650852 339.98109974 128.72265625 383.20703125 C127.25339575 385.09819527 125.79045551 386.99410112 124.328125 388.890625 C118.34583944 396.61338644 112.09607329 404.06876704 105.69238281 411.44433594 C104.16330555 413.21303738 102.64626719 414.99135677 101.1328125 416.7734375 C95.42181432 423.49301673 89.59797959 430.07758103 83.609375 436.55078125 C81.65443622 438.67803034 79.74305455 440.82584752 77.859375 443.015625 C72.77238997 448.87592842 67.40928438 454.48843642 62.09960938 460.14599609 C60.15613753 462.21991881 58.21809218 464.29879215 56.28125 466.37890625 C50.13602071 472.97016025 43.98211685 479.5178177 37.515625 485.796875 C35.56498919 487.79952777 33.74111771 489.83689115 31.91796875 491.953125 C28.05326741 496.40735705 23.92749224 500.55988015 19.734375 504.703125 C19.00283203 505.43015625 18.27128906 506.1571875 17.51757812 506.90625 C15.73797676 508.67421999 13.95606582 510.43978878 12.171875 512.203125 C8.63067442 510.69402488 6.35583135 508.63193186 3.65234375 505.9140625 C2.79447266 505.05425781 1.93660156 504.19445312 1.05273438 503.30859375 C0.16392578 502.40753906 -0.72488281 501.50648438 -1.640625 500.578125 C-2.51783203 499.70027344 -3.39503906 498.82242187 -4.29882812 497.91796875 C-8.76194812 493.42480531 -13.06326724 488.85964755 -17.19018555 484.05712891 C-19.92549139 480.96100243 -22.87723508 478.0918651 -25.828125 475.203125 C-30.17076847 470.91070529 -34.37488285 466.58777927 -38.32421875 461.92578125 C-39.91918498 460.09881993 -41.59830342 458.40253213 -43.328125 456.703125 C-46.27695283 453.79976368 -48.9894461 450.76057615 -51.6875 447.625 C-53.91294786 445.10715753 -56.19837901 442.65611724 -58.49829102 440.20654297 C-63.77890234 434.5818563 -68.82658232 428.87324137 -73.65234375 422.84765625 C-75.958442 420.04473252 -78.36964031 417.37309225 -80.828125 414.703125 C-85.72074433 409.3732608 -90.31849523 403.85914214 -94.828125 398.203125 C-96.03855469 396.68525391 -96.03855469 396.68525391 -97.2734375 395.13671875 C-99.60205027 392.20119912 -101.90781226 389.24840246 -104.20605469 386.2890625 C-105.34183715 384.82847771 -106.48077705 383.37034525 -107.62207031 381.9140625 C-123.20089614 362.00645148 -137.25803459 341.13791145 -149.828125 319.203125 C-150.3226416 318.34041992 -150.8171582 317.47771484 -151.32666016 316.58886719 C-164.85062387 292.80579393 -176.62702964 268.10473582 -183.140625 241.453125 C-183.38337158 240.45998291 -183.62611816 239.46684082 -183.8762207 238.44360352 C-187.06763731 224.68788675 -188.2124214 211.14484429 -188.140625 197.078125 C-188.13846985 196.31310669 -188.1363147 195.54808838 -188.13409424 194.7598877 C-188.0782806 182.36538872 -187.44695769 170.35498702 -184.828125 158.203125 C-184.54606201 156.86096924 -184.54606201 156.86096924 -184.25830078 155.49169922 C-173.153304 104.40164643 -140.46450268 59.41730711 -96.70825195 31.15332031 C-93.45310874 29.10344807 -90.15153602 27.13987435 -86.828125 25.203125 C-86.2285498 24.84911621 -85.62897461 24.49510742 -85.01123047 24.13037109 C-60.07408823 9.55920298 -28.96296311 0.1653014 0 0 Z M-29.828125 26.203125 C-30.68116211 26.41211426 -31.53419922 26.62110352 -32.41308594 26.83642578 C-70.80477726 36.59888443 -105.55056192 60.02391355 -129.828125 91.203125 C-130.98441406 92.6571875 -130.98441406 92.6571875 -132.1640625 94.140625 C-137.81455483 101.60146924 -142.30394447 109.4743341 -146.640625 117.765625 C-147.17977539 118.79381348 -147.71892578 119.82200195 -148.27441406 120.88134766 C-154.0185986 132.11121061 -158.19462132 143.41436925 -161.015625 155.703125 C-161.3859082 157.24033203 -161.3859082 157.24033203 -161.76367188 158.80859375 C-164.74647582 171.48749905 -166.20995315 183.66962811 -166.140625 196.703125 C-166.13913452 197.39945038 -166.13764404 198.09577576 -166.1361084 198.8132019 C-166.06987664 216.10883529 -164.07175453 232.66178363 -158.828125 249.203125 C-158.59641602 249.94852539 -158.36470703 250.69392578 -158.12597656 251.46191406 C-152.52664984 269.21113121 -144.8955949 286.16488345 -133.828125 301.203125 C-133.07015625 302.2446875 -132.3121875 303.28625 -131.53125 304.359375 C-104.50294645 340.83314136 -64.01410657 367.14281538 -18.828125 374.203125 C30.23975542 380.52559699 78.4978201 370.96427642 118.32373047 340.66259766 C121.99870586 337.76048367 125.44124522 334.64445555 128.8359375 331.41796875 C130.86585373 329.49328229 132.94642953 327.72320895 135.109375 325.953125 C156.71608394 306.98674709 171.40187907 279.18157501 180.171875 252.203125 C180.41276855 251.47834961 180.65366211 250.75357422 180.90185547 250.00683594 C195.1521825 206.35593827 189.26882712 158.27483679 169.01098633 117.62011719 C161.63151951 103.36075741 152.20475536 90.81566632 141.171875 79.203125 C139.99853777 77.83381282 138.83133534 76.45920713 137.671875 75.078125 C121.74469171 56.90196443 99.32289529 43.42224484 77.171875 34.203125 C76.54442383 33.94047852 75.91697266 33.67783203 75.27050781 33.40722656 C43.08598307 20.26372302 3.88060138 17.8937393 -29.828125 26.203125 Z " fill="#B3B3B3" transform="translate(244.828125,-0.203125)"/>
<path d="M0 0 C92.73 0 185.46 0 281 0 C284.7411335 7.48226701 287.94046012 13.91593576 290.25 21.75 C290.49234375 22.53503906 290.7346875 23.32007813 290.984375 24.12890625 C295.32304391 38.34747881 297.36981761 51.87213892 297.25 66.75 C297.24623352 67.45920593 297.24246704 68.16841187 297.23858643 68.89910889 C297.15028667 83.07062043 295.9065819 96.17318242 292.3125 109.9375 C291.98354736 111.2061792 291.98354736 111.2061792 291.64794922 112.50048828 C289.15714507 121.4313432 285.60616717 129.24216545 282 138 C188.94 138 95.88 138 0 138 C-9.83217719 113.41955703 -15.23945765 94.22504909 -15.375 68.3125 C-15.38285522 67.57618347 -15.39071045 66.83986694 -15.39880371 66.08123779 C-15.59027921 42.99430466 -9.33639311 21.00688449 0 0 Z " fill="#EFEFEF" transform="translate(115,130)"/>
<path d="M0 0 C4.7025 0.0309375 4.7025 0.0309375 9.5 0.0625 C9.5 7.3225 9.5 14.5825 9.5 22.0625 C5.7565625 22.18625 5.7565625 22.18625 1.9375 22.3125 C-44.19876485 24.58515892 -87.86274745 44.95725735 -119.875 78.25 C-123.58706207 82.39037693 -127.07714885 86.68102497 -130.5 91.0625 C-131.27214844 92.03316406 -132.04429687 93.00382812 -132.83984375 94.00390625 C-138.48773097 101.4642435 -142.97670796 109.3354078 -147.3125 117.625 C-147.85165039 118.65318848 -148.39080078 119.68137695 -148.94628906 120.74072266 C-154.6904736 131.97058561 -158.86649632 143.27374425 -161.6875 155.5625 C-162.0577832 157.09970703 -162.0577832 157.09970703 -162.43554688 158.66796875 C-165.41835082 171.34687405 -166.88182815 183.52900311 -166.8125 196.5625 C-166.81100952 197.25882538 -166.80951904 197.95515076 -166.8079834 198.6725769 C-166.74175164 215.96821029 -164.74362953 232.52115863 -159.5 249.0625 C-159.26829102 249.80790039 -159.03658203 250.55330078 -158.79785156 251.32128906 C-153.19852484 269.07050621 -145.5674699 286.02425845 -134.5 301.0625 C-133.74203125 302.1040625 -132.9840625 303.145625 -132.203125 304.21875 C-104.89330124 341.07049404 -65.44857485 364.70667519 -20.5 373.0625 C-5.65 374.5475 -5.65 374.5475 9.5 376.0625 C9.5 420.9425 9.5 465.8225 9.5 512.0625 C1.61117272 505.30064805 1.61117272 505.30064805 -1.4375 502.2578125 C-2.10523438 501.59136719 -2.77296875 500.92492187 -3.4609375 500.23828125 C-4.13382813 499.56152344 -4.80671875 498.88476562 -5.5 498.1875 C-6.17289063 497.51847656 -6.84578125 496.84945313 -7.5390625 496.16015625 C-11.45665362 492.23500221 -15.16318233 488.19352252 -18.78515625 483.99560547 C-21.55151391 480.8771516 -24.5223755 477.97741161 -27.5 475.0625 C-31.84264347 470.77008029 -36.04675785 466.44715427 -39.99609375 461.78515625 C-41.59105998 459.95819493 -43.27017842 458.26190713 -45 456.5625 C-47.94882783 453.65913868 -50.6613211 450.61995115 -53.359375 447.484375 C-55.58482286 444.96653253 -57.87025401 442.51549224 -60.17016602 440.06591797 C-65.45077734 434.4412313 -70.49845732 428.73261637 -75.32421875 422.70703125 C-77.630317 419.90410752 -80.04151531 417.23246725 -82.5 414.5625 C-87.39261933 409.2326358 -91.99037023 403.71851714 -96.5 398.0625 C-97.71042969 396.54462891 -97.71042969 396.54462891 -98.9453125 394.99609375 C-101.27392527 392.06057412 -103.57968726 389.10777746 -105.87792969 386.1484375 C-107.01371215 384.68785271 -108.15265205 383.22972025 -109.29394531 381.7734375 C-124.87277114 361.86582648 -138.92990959 340.99728645 -151.5 319.0625 C-151.9945166 318.19979492 -152.4890332 317.33708984 -152.99853516 316.44824219 C-166.52249887 292.66516893 -178.29890464 267.96411082 -184.8125 241.3125 C-185.05524658 240.31935791 -185.29799316 239.32621582 -185.5480957 238.30297852 C-188.73951231 224.54726175 -189.8842964 211.00421929 -189.8125 196.9375 C-189.81034485 196.17248169 -189.8081897 195.40746338 -189.80596924 194.6192627 C-189.7501556 182.22476372 -189.11883269 170.21436202 -186.5 158.0625 C-186.21793701 156.72034424 -186.21793701 156.72034424 -185.93017578 155.35107422 C-174.825179 104.26102143 -142.13637768 59.27668211 -98.38012695 31.01269531 C-95.12498374 28.96282307 -91.82341102 26.99924935 -88.5 25.0625 C-87.9004248 24.70849121 -87.30084961 24.35448242 -86.68310547 23.98974609 C-61.21692972 9.1094553 -29.55447598 -0.27701193 0 0 Z " fill="#979797" transform="translate(246.5,-0.0625)"/>
<path d="M0 0 C92.4 0 184.8 0 280 0 C273.65499827 15.86250433 262.65330248 28.77187094 251 41 C250.33355469 41.71929687 249.66710937 42.43859375 248.98046875 43.1796875 C227.92089135 65.25899181 196.87889559 80.09403727 167 85 C165.86667236 85.24943359 165.86667236 85.24943359 164.71044922 85.50390625 C156.20470946 87.29762279 147.77529906 87.39785904 139.125 87.375 C137.96497971 87.37418427 137.96497971 87.37418427 136.78152466 87.37335205 C124.16076797 87.33260892 112.20481927 86.44218341 100 83 C99.22994629 82.78569336 98.45989258 82.57138672 97.66650391 82.35058594 C56.11527838 70.40927996 23.26723024 41.81255424 1.58203125 4.94921875 C0 2 0 2 0 0 Z " fill="#D80128" transform="translate(116,268)"/>
<path d="M0 0 C0.8377597 0.00026184 1.67551941 0.00052368 2.53866577 0.00079346 C42.57396003 0.14842149 78.73103807 14.91476881 107.8125 42.4375 C108.74707031 43.29601562 109.68164062 44.15453125 110.64453125 45.0390625 C122.40011433 56.09160228 132.68826439 69.92996566 139.8125 84.4375 C139.8125 85.0975 139.8125 85.7575 139.8125 86.4375 C47.7425 86.4375 -44.3275 86.4375 -139.1875 86.4375 C-120.03376586 48.13003172 -87.68874355 20.83847425 -47.15771484 7.078125 C-31.47724196 1.97954249 -16.39292709 -0.01174003 0 0 Z " fill="#D70027" transform="translate(255.1875,42.5625)"/>
<path d="M0 0 C0.66 0 1.32 0 2 0 C2.38631592 0.72775635 2.77263184 1.4555127 3.1706543 2.20532227 C9.86119877 14.79318706 16.56609684 27.36360215 23.625 39.75 C28.27601095 47.91133073 32.8329887 56.11816443 37.3125 64.375 C37.88242676 65.42268555 38.45235352 66.47037109 39.03955078 67.54980469 C39.55888184 68.51047852 40.07821289 69.47115234 40.61328125 70.4609375 C41.30611206 71.74170166 41.30611206 71.74170166 42.01293945 73.04833984 C43 75 43 75 43 76 C32.77 76 22.54 76 12 76 C12 82.6 12 89.2 12 96 C4.74 96 -2.52 96 -10 96 C-10 89.4 -10 82.8 -10 76 C-20.23 76 -30.46 76 -41 76 C-36.62260165 66.98770927 -32.0418872 58.19342605 -27.0625 49.5 C-20.67528788 38.34609725 -14.63886789 27.02053314 -8.64868164 15.65039062 C-8.29561447 14.98109528 -7.9425473 14.31179993 -7.57878113 13.6222229 C-6.61585299 11.79570828 -5.65525911 9.96796359 -4.69482422 8.14013672 C-1.51612058 2.25069763 -1.51612058 2.25069763 0 0 Z " fill="#6FA647" transform="translate(255,151)"/>
</svg>
